<svg width="150" height="150" viewBox="0 0 150 150" fill="none" xmlns="http://www.w3.org/2000/svg">
<path d="M120.375 76.0756C120.375 72.6118 120.069 69.296 119.487 66.1184H75V84.3947H100.618C99.5724 90.4638 96.227 95.625 91.1053 99.0789V110.921H106.362C115.273 102.671 120.375 90.4835 120.375 76.0756Z" fill="#4285F4"/>
<path d="M75 122.368C87.7993 122.368 98.546 118.164 106.362 110.911L91.1052 99.0691C86.8618 101.931 81.3947 103.609 75 103.609C62.6447 103.609 52.1645 95.2796 48.4046 84.0592H32.6743V96.2664C40.4704 111.75 56.4868 122.368 75 122.368Z" fill="#34A853"/>
<path d="M48.4046 84.069C47.4474 81.2072 46.9243 78.1579 46.9243 75C46.9243 71.8421 47.4474 68.8026 48.4046 65.9309V53.7335H32.6743C29.4572 60.1283 27.6316 67.3519 27.6316 75C27.6316 82.648 29.4572 89.8717 32.6743 96.2664L48.4046 84.069Z" fill="#FBBC05"/>
<path d="M75 46.3816C81.977 46.3816 88.2335 48.7895 93.1776 53.4868V53.4967L106.697 39.977C98.4868 32.329 87.7796 27.6316 75 27.6316C56.4868 27.6316 40.4704 38.25 32.6743 53.7336L48.4046 65.9408C52.1645 54.7105 62.6447 46.3816 75 46.3816Z" fill="#EA4335"/>
</svg>
